<svg width="138" height="138" viewBox="0 0 138 138" fill="none" xmlns="http://www.w3.org/2000/svg">
<g clip-path="url(#clip0_12_132159)">
<path d="M37.3363 0H0V37.3363C7.56848 20.8646 20.8646 7.56848 37.3363 0Z" fill="#F4F6EF"/>
<path d="M138 37.3363V0H100.664C117.136 7.56848 130.432 20.8646 138 37.3363Z" fill="#F4F6EF"/>
<path d="M100.656 138H137.993V100.664C130.424 117.136 117.128 130.432 100.656 138Z" fill="#F4F6EF"/>
<path d="M0 100.656V137.993H37.3363C20.8646 130.424 7.56848 117.128 0 100.656Z" fill="#F4F6EF"/>
<path d="M118.242 64.4206C117.12 64.1273 116.908 63.9659 116.908 62.1252V39.5371C116.908 36.7429 117.238 34.7481 117.238 34.7481L116.695 34.3301L108.356 35.0781V36.4129L110.065 37.2049C111.187 37.7476 111.4 37.9163 111.4 39.7498V62.1252C111.4 63.8779 111.195 64.1273 110.021 64.4206L108.562 64.7947V66.2541H119.687V64.7947L118.228 64.4206H118.242Z" fill="#F4F6EF"/>
<path d="M44.971 47.3703C48.2052 47.3703 46.4011 50.3845 50.0167 50.3845C51.5568 50.3845 52.5982 49.3431 52.5982 47.5903C52.5982 45.8375 51.5934 44.3488 49.1073 44.3488C47.0465 44.3488 42.1769 44.5028 38.7226 50.2451H38.554L38.8033 44.6201L38.3046 44.2461L30.5088 45.1628V46.3729L32.0122 47.2456C33.1343 47.913 33.347 47.9937 33.347 49.7464V62.1259C33.347 63.8787 33.1416 64.128 32.0122 64.4214L30.5528 64.7954V66.2548H41.8908V64.7954L40.1014 64.4214C39.06 64.2527 38.8546 64.0033 38.8546 62.1259V53.9634C39.17 52.5699 42.1915 47.3703 44.9857 47.3703H44.971Z" fill="#F4F6EF"/>
<path d="M97.891 44.209C92.31 44.209 87.1396 48.4186 87.1396 55.3784C87.1396 62.3381 90.6819 66.7531 97.891 66.7531C102.057 66.7531 105.181 64.8756 106.479 63.6289V61.8394C104.851 62.6315 102.937 63.5042 99.9811 63.5042C95.7275 63.5042 92.9407 61.2087 92.728 54.9603H107.022C106.941 47.1278 103.523 44.209 97.8983 44.209H97.891ZM92.7647 53.0022C93.014 48.0812 95.0601 46.1231 97.6416 46.1231C100.56 46.1231 101.265 47.7072 101.265 52.5842L92.7647 53.0022V53.0022Z" fill="#F4F6EF"/>
<path d="M4.31939 37.373L3.90137 46.7896H5.61014C6.60754 44.2081 7.06957 42.7854 8.03029 41.37C9.24037 39.4558 9.86374 39.3678 13.3253 39.3678H13.45V61.6626C13.45 63.9581 13.1566 64.1194 11.8219 64.4127L10.0324 64.7428V66.2462H22.9472V64.7428L21.1578 64.4127C19.7424 64.1194 19.5737 63.9581 19.5737 61.6626V39.3678H19.6544C23.1526 39.3678 23.7393 39.4118 24.986 41.37C25.9027 42.7854 26.4014 44.2008 27.3622 46.7896H29.0709L28.6529 37.373H4.31939V37.373Z" fill="#F4F6EF"/>
<path d="M62.3448 61.4132V49.7451C62.3448 43.9294 55.2017 44.1421 54.131 44.2007C54.0943 44.2007 54.087 44.2447 54.1163 44.2594C54.6517 44.5234 56.8225 45.7775 56.8225 49.107C56.8225 52.2312 56.8445 53.5367 56.8445 53.5367L52.8036 54.4534C46.9659 55.8321 44.6777 57.6656 44.6777 61.2078C44.6777 64.75 47.1346 66.7522 51.0948 66.7522C53.7643 66.7522 55.8838 65.6301 56.8885 64.2513H57.0938C57.4679 65.7548 58.8026 66.7522 61.0981 66.7522C63.0562 66.7522 64.6843 66.0848 65.4324 65.5421V64.2073C64.6403 64.1633 63.8923 64.0827 63.4302 63.7893C62.5575 63.3713 62.3448 62.7479 62.3448 61.4132V61.4132ZM56.8445 62.3739C56.3458 63.2099 55.1797 63.914 53.5076 63.914C51.4688 63.914 50.1341 63.0779 50.1341 60.5404C50.1341 57.4602 51.5128 56.3748 54.263 56.1255L56.8445 55.8761V62.3739Z" fill="#F4F6EF"/>
<path d="M87.14 46.2465V44.7871H79.1828V46.2465L80.3489 46.5399C81.2216 46.7452 81.515 47.2073 81.515 47.9553C81.515 48.498 81.3903 49.2021 81.0163 50.2508L77.3934 60.5841H77.2247L73.3892 50.2508C73.0591 49.2901 72.8024 48.586 72.8024 48.0433C72.8024 47.2073 73.0518 46.7966 74.0492 46.5399L75.1713 46.2465V44.7871H64.0459V46.2465L64.9626 46.5399C66.1727 46.9139 66.5027 47.5006 67.3828 49.5834L74.2179 66.2531H77.4301L83.7665 50.0014C84.6832 47.6253 85.0132 46.8332 86.1426 46.5399L87.14 46.2465V46.2465Z" fill="#F4F6EF"/>
<path d="M30.2881 99.131L31.9162 98.8009C33.0823 98.5516 33.4563 98.3389 33.4563 96.0508V76.3375C33.4563 74.0054 33.0823 73.7927 31.9162 73.5434L30.2881 73.2133V71.7539H43.0856V73.2133L41.1274 73.5874C39.8807 73.8367 39.5873 74.0054 39.5873 76.3375V94.6353C39.5873 98.3462 39.756 98.5956 43.7969 98.5956C47.3832 98.5956 48.2559 98.0969 49.466 96.3001C50.214 95.178 51.2187 93.7186 52.2161 90.8438H53.9249L53.3015 100.634H30.2954V99.131H30.2881Z" fill="#F4F6EF"/>
<path d="M55.4062 89.9201C55.4062 82.2929 60.8626 78.582 66.5316 78.582C72.5747 78.582 77.5763 82.2049 77.5763 89.7074C77.5763 97.2099 72.2006 101.126 66.5316 101.126C60.4079 101.126 55.4062 97.4152 55.4062 89.9127V89.9201ZM71.7019 90.0447C71.7019 82.6303 69.8685 80.5402 66.3263 80.5402C63.1141 80.5402 61.3246 82.711 61.3246 89.414C61.3246 96.9165 63.0334 99.168 66.6563 99.168C69.8245 99.168 71.7019 97.0412 71.7019 90.0447Z" fill="#F4F6EF"/>
<path d="M79.4688 90.1332C79.4688 81.296 86.3845 78.5898 91.9289 78.5898C96.0578 78.5898 98.3019 79.9686 98.3019 82.3007C98.3019 83.7602 97.1799 85.3443 95.5518 85.3443C93.6376 85.3443 93.0509 84.1342 92.8456 82.5941C92.5962 80.8413 92.2222 80.592 90.8068 80.592C87.8879 80.592 85.1011 82.3814 85.1011 88.4245C85.1011 94.4675 87.4773 97.8851 92.2296 97.8851C94.9357 97.8851 96.8938 96.9683 98.3973 96.1763V97.9657C97.1065 99.3005 94.063 101.134 89.7727 101.134C83.1063 101.134 79.4761 96.719 79.4761 90.1332H79.4688Z" fill="#F4F6EF"/>
<path d="M100.656 95.5891C100.656 92.0469 102.952 90.2134 108.782 88.8347L112.823 87.9179V84.4564C112.823 81.3322 112.28 80.4155 109.281 80.4155C107.697 80.4155 107.491 80.7455 107.323 81.9996C107.117 84.163 106.362 85.2925 104.279 85.2925C102.49 85.2925 101.734 84.3317 101.734 82.9163C101.734 80.1221 105.695 78.582 110.447 78.582C115.617 78.582 118.323 80.2908 118.323 84.1264V95.7944C118.323 97.1292 118.529 97.7526 119.409 98.1706C119.871 98.4639 120.619 98.5446 121.411 98.5886V99.9234C120.663 100.466 119.035 101.133 117.077 101.133C114.781 101.133 113.454 100.136 113.072 98.6326H112.867C111.87 100.011 109.743 101.133 107.073 101.133C103.113 101.133 100.656 99.1313 100.656 95.5891V95.5891ZM112.823 96.7552V90.2574L110.242 90.5068C107.491 90.7561 106.113 91.8415 106.113 94.9217C106.113 97.4665 107.447 98.2953 109.486 98.2953C111.151 98.2953 112.317 97.5839 112.823 96.7552Z" fill="#F4F6EF"/>
<path d="M122.643 99.1755L124.102 98.8015C125.268 98.5081 125.481 98.2588 125.481 96.506V74.1306C125.481 72.2972 125.276 72.1285 124.146 71.5858L122.438 70.7937V69.459L130.769 68.7109L131.311 69.129C131.311 69.129 130.981 71.1311 130.981 73.9179V96.506C130.981 98.3395 131.187 98.5081 132.316 98.8015L133.776 99.1755V100.635H122.65V99.1755H122.643Z" fill="#F4F6EF"/>
</g>
<defs>
<clipPath id="clip0_12_132159">
<rect width="138" height="138" fill="white"/>
</clipPath>
</defs>
</svg>
